<?xml version="1.0" encoding="UTF-8"?>
<svg width="10px" height="15px" viewBox="0 0 10 15" version="1.1" xmlns="http://www.w3.org/2000/svg" xmlns:xlink="http://www.w3.org/1999/xlink">
    <!-- Generator: Sketch 63.1 (92452) - https://sketch.com -->
    <title>大于等于</title>
    <desc>Created with Sketch.</desc>
    <g id="分享" stroke="none" stroke-width="1" fill="none" fill-rule="evenodd">
        <g id="3" transform="translate(-1693.000000, -978.000000)">
            <g id="日期-copy-10备份-3" transform="translate(1426.000000, 990.000000)"></g>
            <path d="M1702,990.465964 C1702.55228,990.465964 1703,990.91368 1703,991.465964 C1703,992.018249 1702.55228,992.465964 1702,992.465964 L1694,992.465964 C1693.44772,992.465964 1693,992.018249 1693,991.465964 C1693,990.91368 1693.44772,990.465964 1694,990.465964 L1702,990.465964 Z M1693.73267,978.426509 C1694.04944,977.974104 1694.67299,977.864156 1695.1254,978.180934 L1695.1254,978.180934 L1701.67861,982.769545 C1702.01688,983.006406 1702.16369,983.414775 1702.08381,983.79487 C1702.16362,984.174209 1702.0168,984.582436 1701.67861,984.819238 L1695.1254,989.407849 C1694.67299,989.724627 1694.04944,989.614679 1693.73267,989.162274 C1693.41589,988.709868 1693.52584,988.086323 1693.97824,987.769545 L1699.655,983.794 L1693.97824,979.819238 C1693.56064,979.526828 1693.43483,978.973029 1693.6671,978.533731 Z" id="大于等于" fill="#CCCCCC"></path>
        </g>
    </g>
</svg>