<?xml version="1.0" encoding="UTF-8"?>
<svg width="10px" height="12px" viewBox="0 0 10 12" version="1.1" xmlns="http://www.w3.org/2000/svg" xmlns:xlink="http://www.w3.org/1999/xlink">
    <!-- Generator: Sketch 63.1 (92452) - https://sketch.com -->
    <title>不等于</title>
    <desc>Created with Sketch.</desc>
    <g id="分享" stroke="none" stroke-width="1" fill="none" fill-rule="evenodd">
        <g id="3" transform="translate(-1694.000000, -891.000000)" fill="#CCCCCC">
            <path d="M1698.22959,891.959517 L1698.971,893.999265 L1703,894 C1703.51284,894 1703.93551,894.38604 1703.99327,894.883379 L1704,895 C1704,895.552285 1703.55228,896 1703,896 L1703,896 L1699.699,895.999265 L1700.427,897.999265 L1703,898 C1703.55228,898 1704,898.447715 1704,899 C1704,899.552285 1703.55228,900 1703,900 L1701.155,899.999265 L1701.64979,901.356443 C1701.83869,901.875421 1701.5711,902.449263 1701.05212,902.638156 C1700.53314,902.827048 1699.9593,902.559461 1699.77041,902.040483 L1699.027,899.999265 L1695,900 C1694.44772,900 1694,899.552285 1694,899 C1694,898.447715 1694.44772,898 1695,898 L1698.299,897.999265 L1697.571,895.999265 L1695,896 C1694.48716,896 1694.06449,895.61396 1694.00673,895.116621 L1694,895 C1694,894.447715 1694.44772,894 1695,894 L1695,894 L1696.844,893.999265 L1696.35021,892.643557 C1696.16131,892.124579 1696.4289,891.550737 1696.94788,891.361844 C1697.46686,891.172952 1698.0407,891.440539 1698.22959,891.959517 Z" id="不等于" transform="translate(1699.000000, 897.000000) scale(-1, 1) translate(-1699.000000, -897.000000) "></path>
        </g>
    </g>
</svg>