<?xml version="1.0" encoding="UTF-8"?>
<svg width="11px" height="15px" viewBox="0 0 11 15" version="1.1" xmlns="http://www.w3.org/2000/svg" xmlns:xlink="http://www.w3.org/1999/xlink">
    <!-- Generator: Sketch 63.1 (92452) - https://sketch.com -->
    <title>不包含</title>
    <desc>Created with Sketch.</desc>
    <g id="分享" stroke="none" stroke-width="1" fill="none" fill-rule="evenodd">
        <g id="3" transform="translate(-1694.000000, -844.000000)" fill="#CCCCCC">
            <path d="M1702.06515,844.06058 C1702.58413,844.249472 1702.85172,844.823314 1702.66282,845.342292 L1702.423,845.999 L1704,846 C1704.55228,846 1705,846.447715 1705,847 C1705,847.552285 1704.55228,848 1704,848 L1701.695,847.999 L1699.511,853.999 L1704,854 C1704.55228,854 1705,854.447715 1705,855 C1705,855.552285 1704.55228,856 1704,856 L1699,856 L1698.785,855.995 L1698.21656,857.558296 C1698.02767,858.077274 1697.45383,858.344861 1696.93485,858.155969 C1696.41587,857.967076 1696.14828,857.393234 1696.33718,856.874256 L1696.83547,855.508473 C1695.15791,854.701606 1694,852.986025 1694,851 C1694,848.238576 1696.23858,846 1699,846 L1700.295,845.999 L1700.78344,844.658252 C1700.97233,844.139274 1701.54617,843.871687 1702.06515,844.06058 Z M1699.567,847.999 L1699,848 C1697.40232,848 1696.09634,849.24892 1696.00509,850.823727 L1696,851 C1696,852.120544 1696.61434,853.097599 1697.52459,853.612723 L1699.567,847.999 Z" id="不包含"></path>
        </g>
    </g>
</svg>