<?xml version="1.0" encoding="UTF-8"?>
<svg width="11px" height="14px" viewBox="0 0 11 14" version="1.1" xmlns="http://www.w3.org/2000/svg" xmlns:xlink="http://www.w3.org/1999/xlink">
    <!-- Generator: Sketch 63.1 (92452) - https://sketch.com -->
    <title>矩形 2</title>
    <desc>Created with Sketch.</desc>
    <g id="分享" stroke="none" stroke-width="1" fill="none" fill-rule="evenodd">
        <g id="3" transform="translate(-1694.000000, -821.000000)" fill="#CCCCCC">
            <path d="M1697,821 C1697.55228,821 1698,821.447715 1698,822 C1698,822.552285 1697.55228,823 1697,823 L1696,823 L1696,833 L1697,833 C1697.55228,833 1698,833.447715 1698,834 C1698,834.552285 1697.55228,835 1697,835 L1695,835 L1695,835 C1694.44772,835 1694,834.552285 1694,834 L1694,822 C1694,821.447715 1694.44772,821 1695,821 L1697,821 Z M1704,821 C1704.55228,821 1705,821.447715 1705,822 L1705,822 L1705,834 C1705,834.552285 1704.55228,835 1704,835 L1704,835 L1702,835 C1701.44772,835 1701,834.552285 1701,834 C1701,833.447715 1701.44772,833 1702,833 L1702,833 L1703,833 L1703,823 L1702,823 C1701.44772,823 1701,822.552285 1701,822 C1701,821.447715 1701.44772,821 1702,821 L1702,821 Z" id="矩形-2"></path>
        </g>
    </g>
</svg>