<?xml version="1.0" encoding="UTF-8"?>
<svg width="12px" height="13px" viewBox="0 0 12 13" version="1.1" xmlns="http://www.w3.org/2000/svg" xmlns:xlink="http://www.w3.org/1999/xlink">
    <!-- Generator: Sketch 63.1 (92452) - https://sketch.com -->
    <title>包含</title>
    <desc>Created with Sketch.</desc>
    <g id="分享" stroke="none" stroke-width="1" fill="none" fill-rule="evenodd">
        <g id="3" transform="translate(-1693.000000, -868.000000)" fill="#CCCCCC">
            <path d="M1705,880 C1705,880.552285 1704.55228,881 1704,881 L1695,881 C1694.44772,881 1694,880.552285 1694,880 C1694,879.447715 1694.44772,879 1695,879 L1704,879 C1704.55228,879 1705,879.447715 1705,880 Z M1704,869 C1704,869.552285 1703.55228,870 1703,870 L1698,870 L1698,870 C1696.40232,870 1695.09634,871.24892 1695.00509,872.823727 L1695,873 C1695,874.597681 1696.24892,875.903661 1697.82373,875.994907 L1698,876 L1703,876 C1703.55228,876 1704,876.447715 1704,877 C1704,877.552285 1703.55228,878 1703,878 L1698,878 L1698,878 C1695.23858,878 1693,875.761424 1693,873 C1693,870.238576 1695.23858,868 1698,868 L1703,868 C1703.55228,868 1704,868.447715 1704,869 Z" id="包含"></path>
        </g>
    </g>
</svg>