<?xml version="1.0" encoding="UTF-8"?>
<svg width="10px" height="15px" viewBox="0 0 10 15" version="1.1" xmlns="http://www.w3.org/2000/svg" xmlns:xlink="http://www.w3.org/1999/xlink">
    <!-- Generator: Sketch 63.1 (92452) - https://sketch.com -->
    <title>小于等于</title>
    <desc>Created with Sketch.</desc>
    <g id="分享" stroke="none" stroke-width="1" fill="none" fill-rule="evenodd">
        <g id="3" transform="translate(-1694.000000, -937.000000)" fill="#CCCCCC">
            <path d="M1703,949.465964 C1703.55228,949.465964 1704,949.91368 1704,950.465964 C1704,951.018249 1703.55228,951.465964 1703,951.465964 L1695,951.465964 C1694.44772,951.465964 1694,951.018249 1694,950.465964 C1694,949.91368 1694.44772,949.465964 1695,949.465964 L1703,949.465964 Z M1694.73267,937.426509 C1695.04944,936.974104 1695.67299,936.864156 1696.1254,937.180934 L1696.1254,937.180934 L1702.67861,941.769545 C1703.01688,942.006406 1703.16369,942.414775 1703.08381,942.79487 C1703.16362,943.174209 1703.0168,943.582436 1702.67861,943.819238 L1696.1254,948.407849 C1695.67299,948.724627 1695.04944,948.614679 1694.73267,948.162274 C1694.41589,947.709868 1694.52584,947.086323 1694.97824,946.769545 L1700.655,942.794 L1694.97824,938.819238 C1694.56064,938.526828 1694.43483,937.973029 1694.6671,937.533731 Z" id="小于等于" transform="translate(1699.000000, 944.232982) scale(-1, 1) translate(-1699.000000, -944.232982) "></path>
        </g>
    </g>
</svg>