<?xml version="1.0" encoding="UTF-8"?>
<svg width="10px" height="7px" viewBox="0 0 10 7" version="1.1" xmlns="http://www.w3.org/2000/svg" xmlns:xlink="http://www.w3.org/1999/xlink">
    <!-- Generator: Sketch 63.1 (92452) - https://sketch.com -->
    <title>等于</title>
    <desc>Created with Sketch.</desc>
    <g id="分享" stroke="none" stroke-width="1" fill="none" fill-rule="evenodd">
        <g id="3" transform="translate(-1694.000000, -916.000000)" fill="#CCCCCC">
            <path d="M1703,920.465964 C1703.55228,920.465964 1704,920.91368 1704,921.465964 C1704,922.018249 1703.55228,922.465964 1703,922.465964 L1695,922.465964 C1694.44772,922.465964 1694,922.018249 1694,921.465964 C1694,920.91368 1694.44772,920.465964 1695,920.465964 L1703,920.465964 Z M1703,916.465964 C1703.55228,916.465964 1704,916.91368 1704,917.465964 C1704,918.018249 1703.55228,918.465964 1703,918.465964 L1703,918.465964 L1695,918.465964 C1694.44772,918.465964 1694,918.018249 1694,917.465964 C1694,916.91368 1694.44772,916.465964 1695,916.465964 L1695,916.465964 Z" id="等于" transform="translate(1699.000000, 919.465964) scale(-1, 1) translate(-1699.000000, -919.465964) "></path>
        </g>
    </g>
</svg>